<?xml version="1.0" encoding="UTF-8"?>
<svg width="200px" height="200px" viewBox="0 0 200 200" version="1.1" xmlns="http://www.w3.org/2000/svg" xmlns:xlink="http://www.w3.org/1999/xlink">
    <!-- Generator: Sketch 53.2 (72643) - https://sketchapp.com -->
    <title>Artboard</title>
    <desc>Created with Sketch.</desc>
    <defs>
        <linearGradient x1="72.3671485%" y1="76.7664235%" x2="48.5539453%" y2="47.4629109%" id="linearGradient-1">
            <stop stop-color="#A25C3E" offset="0%"></stop>
            <stop stop-color="#DA954A" offset="100%"></stop>
        </linearGradient>
        <linearGradient x1="132.189206%" y1="67.2503355%" x2="43.9985144%" y2="43.828011%" id="linearGradient-2">
            <stop stop-color="#A25C3E" offset="0%"></stop>
            <stop stop-color="#DA954A" offset="100%"></stop>
        </linearGradient>
    </defs>
    <g id="Artboard" stroke="none" stroke-width="1" fill="none" fill-rule="evenodd">
        <g id="Untitled-3" transform="translate(14.000000, 33.000000)" fill-rule="nonzero">
            <path d="M143.335081,0 C143.335081,0 65.9016885,106.571165 143.60474,134 C143.60474,134 207.67347,114.991043 143.335081,0 Z M158.580574,81.8879261 C158.580574,81.8879261 165.271567,99.5534701 147.532111,118.572222 C147.532111,118.572222 161.692191,94.8978616 158.580574,81.8879261 Z M145.947303,126.040484 C145.947303,126.040484 168.551909,108.696666 163.42162,74.45583 C163.42162,74.45583 174.79774,110.013708 145.947303,126.040484 Z" id="Shape" fill="url(#linearGradient-1)"></path>
            <path d="M104.041917,72.7330766 C84.0226499,67.7342371 51.5000484,72.0339329 0,105.948057 C0,105.948057 77.6174433,154.140701 116,124.192162 C102.860788,111.015529 101.00184,91.8814676 104.041917,72.7330766 Z M97.4876646,120.829183 C82.5314471,127.130526 62.896403,116.078475 62.896403,116.078475 C76.7591216,122.480127 97.4876646,120.829183 97.4876646,120.829183 Z M55.0906191,116.934493 C55.0906191,116.934493 79.2404651,132.462722 108.179986,122.297611 C108.179237,122.296857 79.7235519,138.3123 55.0906191,116.934493 Z" id="Shape" fill="url(#linearGradient-2)"></path>
            <path d="M78,134 C78,134 39.2795308,129.761995 0,106.433389 C0,106.433389 45.1011451,76.6220209 68.0858744,74 C68.0858744,74 16.0901382,97.0786029 11.7192248,105.466509 C11.7192248,105.466509 52.1853506,130.071487 78,134 Z" id="Path" fill="#884238"></path>
            <path d="M170,68 C170,68 163.628203,35.4327573 143.350717,0 C143.350717,0 118.508973,36.8617581 113,62.2727273 C113,62.2727273 135.539143,12.6025545 142.662095,6.33658903 C142.66284,6.33658903 164.723298,45.5740045 170,68 Z" id="Path" fill="#884238"></path>
        </g>
    </g>
</svg>